# Wavefront OBJ file automatically generated by Tiled2Unity

# Vertices (Count = 175)
v -34.5599975585938 -15.3599996566772 0
v -35.8400001525879 -15.3599996566772 0
v -35.8400001525879 -14.0799999237061 0
v -34.5599975585938 -14.0799999237061 0
v -37.1199989318848 -15.3599996566772 0
v -37.1199989318848 -14.0799999237061 0
v -38.3999977111816 -15.3599996566772 0
v -38.3999977111816 -14.0799999237061 0
v -34.5599975585938 -16.6399993896484 0
v -35.8400001525879 -16.6399993896484 0
v -37.1199989318848 -16.6399993896484 0
v -38.3999977111816 -16.6399993896484 0
v -34.5599975585938 -17.9200000762939 0
v -35.8400001525879 -17.9200000762939 0
v -37.1199989318848 -17.9200000762939 0
v -38.3999977111816 -17.9200000762939 0
v -34.5599975585938 -19.1999988555908 0
v -35.8400001525879 -19.1999988555908 0
v -37.1199989318848 -19.1999988555908 0
v -38.3999977111816 -19.1999988555908 0
v -34.5599975585938 -20.4799995422363 0
v -35.8400001525879 -20.4799995422363 0
v -37.1199989318848 -20.4799995422363 0
v -38.3999977111816 -20.4799995422363 0
v 0 -21.7600002288818 0
v -1.27999997138977 -21.7600002288818 0
v -1.27999997138977 -20.4799995422363 0
v 0 -20.4799995422363 0
v -2.55999994277954 -21.7600002288818 0
v -2.55999994277954 -20.4799995422363 0
v -3.83999991416931 -21.7600002288818 0
v -3.83999991416931 -20.4799995422363 0
v -5.11999988555908 -21.7600002288818 0
v -5.11999988555908 -20.4799995422363 0
v -6.39999961853027 -21.7600002288818 0
v -6.39999961853027 -20.4799995422363 0
v -7.67999982833862 -21.7600002288818 0
v -7.67999982833862 -20.4799995422363 0
v -8.96000003814697 -21.7600002288818 0
v -8.96000003814697 -20.4799995422363 0
v -10.2399997711182 -21.7600002288818 0
v -10.2399997711182 -20.4799995422363 0
v -11.5199995040894 -21.7600002288818 0
v -11.5199995040894 -20.4799995422363 0
v -12.7999992370605 -21.7600002288818 0
v -12.7999992370605 -20.4799995422363 0
v -14.0799999237061 -21.7600002288818 0
v -14.0799999237061 -20.4799995422363 0
v -15.3599996566772 -21.7600002288818 0
v -15.3599996566772 -20.4799995422363 0
v -16.6399993896484 -21.7600002288818 0
v -16.6399993896484 -20.4799995422363 0
v -17.9200000762939 -21.7600002288818 0
v -17.9200000762939 -20.4799995422363 0
v -19.1999988555908 -21.7600002288818 0
v -19.1999988555908 -20.4799995422363 0
v -20.4799995422363 -21.7600002288818 0
v -20.4799995422363 -20.4799995422363 0
v -21.7600002288818 -21.7600002288818 0
v -21.7600002288818 -20.4799995422363 0
v -23.0399990081787 -21.7600002288818 0
v -23.0399990081787 -20.4799995422363 0
v -24.3199996948242 -21.7600002288818 0
v -24.3199996948242 -20.4799995422363 0
v -25.5999984741211 -21.7600002288818 0
v -25.5999984741211 -20.4799995422363 0
v -26.8799991607666 -21.7600002288818 0
v -26.8799991607666 -20.4799995422363 0
v -28.1599998474121 -21.7600002288818 0
v -28.1599998474121 -20.4799995422363 0
v -29.439998626709 -21.7600002288818 0
v -29.439998626709 -20.4799995422363 0
v -30.7199993133545 -21.7600002288818 0
v -30.7199993133545 -20.4799995422363 0
v -32 -21.7600002288818 0
v -32 -20.4799995422363 0
v -33.2799987792969 -21.7600002288818 0
v -33.2799987792969 -20.4799995422363 0
v -34.5599975585938 -21.7600002288818 0
v -35.8400001525879 -21.7600002288818 0
v -37.1199989318848 -21.7600002288818 0
v -38.3999977111816 -21.7600002288818 0
v 0 -23.0399990081787 0
v -1.27999997138977 -23.0399990081787 0
v -2.55999994277954 -23.0399990081787 0
v -3.83999991416931 -23.0399990081787 0
v -5.11999988555908 -23.0399990081787 0
v -6.39999961853027 -23.0399990081787 0
v -7.67999982833862 -23.0399990081787 0
v -8.96000003814697 -23.0399990081787 0
v -10.2399997711182 -23.0399990081787 0
v -11.5199995040894 -23.0399990081787 0
v -12.7999992370605 -23.0399990081787 0
v -14.0799999237061 -23.0399990081787 0
v -15.3599996566772 -23.0399990081787 0
v -16.6399993896484 -23.0399990081787 0
v -17.9200000762939 -23.0399990081787 0
v -19.1999988555908 -23.0399990081787 0
v -20.4799995422363 -23.0399990081787 0
v -21.7600002288818 -23.0399990081787 0
v -23.0399990081787 -23.0399990081787 0
v -24.3199996948242 -23.0399990081787 0
v -25.5999984741211 -23.0399990081787 0
v -26.8799991607666 -23.0399990081787 0
v -28.1599998474121 -23.0399990081787 0
v -29.439998626709 -23.0399990081787 0
v -30.7199993133545 -23.0399990081787 0
v -32 -23.0399990081787 0
v -33.2799987792969 -23.0399990081787 0
v -34.5599975585938 -23.0399990081787 0
v -35.8400001525879 -23.0399990081787 0
v -37.1199989318848 -23.0399990081787 0
v -38.3999977111816 -23.0399990081787 0
v 0 -24.3199996948242 0
v -1.27999997138977 -24.3199996948242 0
v -2.55999994277954 -24.3199996948242 0
v -3.83999991416931 -24.3199996948242 0
v -5.11999988555908 -24.3199996948242 0
v -6.39999961853027 -24.3199996948242 0
v -7.67999982833862 -24.3199996948242 0
v -8.96000003814697 -24.3199996948242 0
v -10.2399997711182 -24.3199996948242 0
v -11.5199995040894 -24.3199996948242 0
v -12.7999992370605 -24.3199996948242 0
v -14.0799999237061 -24.3199996948242 0
v -15.3599996566772 -24.3199996948242 0
v -16.6399993896484 -24.3199996948242 0
v -17.9200000762939 -24.3199996948242 0
v -19.1999988555908 -24.3199996948242 0
v -20.4799995422363 -24.3199996948242 0
v -21.7600002288818 -24.3199996948242 0
v -23.0399990081787 -24.3199996948242 0
v -24.3199996948242 -24.3199996948242 0
v -25.5999984741211 -24.3199996948242 0
v -26.8799991607666 -24.3199996948242 0
v -28.1599998474121 -24.3199996948242 0
v -29.439998626709 -24.3199996948242 0
v -30.7199993133545 -24.3199996948242 0
v -32 -24.3199996948242 0
v -33.2799987792969 -24.3199996948242 0
v -34.5599975585938 -24.3199996948242 0
v -35.8400001525879 -24.3199996948242 0
v -37.1199989318848 -24.3199996948242 0
v -38.3999977111816 -24.3199996948242 0
v 0 -25.5999984741211 0
v -1.27999997138977 -25.5999984741211 0
v -2.55999994277954 -25.5999984741211 0
v -3.83999991416931 -25.5999984741211 0
v -5.11999988555908 -25.5999984741211 0
v -6.39999961853027 -25.5999984741211 0
v -7.67999982833862 -25.5999984741211 0
v -8.96000003814697 -25.5999984741211 0
v -10.2399997711182 -25.5999984741211 0
v -11.5199995040894 -25.5999984741211 0
v -12.7999992370605 -25.5999984741211 0
v -14.0799999237061 -25.5999984741211 0
v -15.3599996566772 -25.5999984741211 0
v -16.6399993896484 -25.5999984741211 0
v -17.9200000762939 -25.5999984741211 0
v -19.1999988555908 -25.5999984741211 0
v -20.4799995422363 -25.5999984741211 0
v -21.7600002288818 -25.5999984741211 0
v -23.0399990081787 -25.5999984741211 0
v -24.3199996948242 -25.5999984741211 0
v -25.5999984741211 -25.5999984741211 0
v -26.8799991607666 -25.5999984741211 0
v -28.1599998474121 -25.5999984741211 0
v -29.439998626709 -25.5999984741211 0
v -30.7199993133545 -25.5999984741211 0
v -32 -25.5999984741211 0
v -33.2799987792969 -25.5999984741211 0
v -34.5599975585938 -25.5999984741211 0
v -35.8400001525879 -25.5999984741211 0
v -37.1199989318848 -25.5999984741211 0
v -38.3999977111816 -25.5999984741211 0

# Texture Coorindates (Count = 8)
vt 0.2515616 0.7510799
vt 0.3741582 0.7510799
vt 0.3741582 0.9960465
vt 0.2515616 0.9960465
vt 0.002041456 0.5020378
vt 0.124638 0.5020378
vt 0.124638 0.7470044
vt 0.002041456 0.7470044

# Normal
vn 0 0 -1

# Groups (Count = 1)
g mesh_[00]_[00]
f  1/1/1  2/2/1  3/3/1  4/4/1 
f  2/1/1  5/2/1  6/3/1  3/4/1 
f  5/1/1  7/2/1  8/3/1  6/4/1 
f  9/5/1  10/6/1  2/7/1  1/8/1 
f  10/5/1  11/6/1  5/7/1  2/8/1 
f  11/5/1  12/6/1  7/7/1  5/8/1 
f  13/5/1  14/6/1  10/7/1  9/8/1 
f  14/5/1  15/6/1  11/7/1  10/8/1 
f  15/5/1  16/6/1  12/7/1  11/8/1 
f  17/5/1  18/6/1  14/7/1  13/8/1 
f  18/5/1  19/6/1  15/7/1  14/8/1 
f  19/5/1  20/6/1  16/7/1  15/8/1 
f  21/5/1  22/6/1  18/7/1  17/8/1 
f  22/5/1  23/6/1  19/7/1  18/8/1 
f  23/5/1  24/6/1  20/7/1  19/8/1 
f  25/1/1  26/2/1  27/3/1  28/4/1 
f  26/1/1  29/2/1  30/3/1  27/4/1 
f  29/1/1  31/2/1  32/3/1  30/4/1 
f  31/1/1  33/2/1  34/3/1  32/4/1 
f  33/1/1  35/2/1  36/3/1  34/4/1 
f  35/1/1  37/2/1  38/3/1  36/4/1 
f  37/1/1  39/2/1  40/3/1  38/4/1 
f  39/1/1  41/2/1  42/3/1  40/4/1 
f  41/1/1  43/2/1  44/3/1  42/4/1 
f  43/1/1  45/2/1  46/3/1  44/4/1 
f  45/1/1  47/2/1  48/3/1  46/4/1 
f  47/1/1  49/2/1  50/3/1  48/4/1 
f  49/1/1  51/2/1  52/3/1  50/4/1 
f  51/1/1  53/2/1  54/3/1  52/4/1 
f  53/1/1  55/2/1  56/3/1  54/4/1 
f  55/1/1  57/2/1  58/3/1  56/4/1 
f  57/1/1  59/2/1  60/3/1  58/4/1 
f  59/1/1  61/2/1  62/3/1  60/4/1 
f  61/1/1  63/2/1  64/3/1  62/4/1 
f  63/1/1  65/2/1  66/3/1  64/4/1 
f  65/1/1  67/2/1  68/3/1  66/4/1 
f  67/1/1  69/2/1  70/3/1  68/4/1 
f  69/1/1  71/2/1  72/3/1  70/4/1 
f  71/1/1  73/2/1  74/3/1  72/4/1 
f  73/1/1  75/2/1  76/3/1  74/4/1 
f  75/1/1  77/2/1  78/3/1  76/4/1 
f  77/1/1  79/2/1  21/3/1  78/4/1 
f  79/5/1  80/6/1  22/7/1  21/8/1 
f  80/5/1  81/6/1  23/7/1  22/8/1 
f  81/5/1  82/6/1  24/7/1  23/8/1 
f  83/5/1  84/6/1  26/7/1  25/8/1 
f  84/5/1  85/6/1  29/7/1  26/8/1 
f  85/5/1  86/6/1  31/7/1  29/8/1 
f  86/5/1  87/6/1  33/7/1  31/8/1 
f  87/5/1  88/6/1  35/7/1  33/8/1 
f  88/5/1  89/6/1  37/7/1  35/8/1 
f  89/5/1  90/6/1  39/7/1  37/8/1 
f  90/5/1  91/6/1  41/7/1  39/8/1 
f  91/5/1  92/6/1  43/7/1  41/8/1 
f  92/5/1  93/6/1  45/7/1  43/8/1 
f  93/5/1  94/6/1  47/7/1  45/8/1 
f  94/5/1  95/6/1  49/7/1  47/8/1 
f  95/5/1  96/6/1  51/7/1  49/8/1 
f  96/5/1  97/6/1  53/7/1  51/8/1 
f  97/5/1  98/6/1  55/7/1  53/8/1 
f  98/5/1  99/6/1  57/7/1  55/8/1 
f  99/5/1  100/6/1  59/7/1  57/8/1 
f  100/5/1  101/6/1  61/7/1  59/8/1 
f  101/5/1  102/6/1  63/7/1  61/8/1 
f  102/5/1  103/6/1  65/7/1  63/8/1 
f  103/5/1  104/6/1  67/7/1  65/8/1 
f  104/5/1  105/6/1  69/7/1  67/8/1 
f  105/5/1  106/6/1  71/7/1  69/8/1 
f  106/5/1  107/6/1  73/7/1  71/8/1 
f  107/5/1  108/6/1  75/7/1  73/8/1 
f  108/5/1  109/6/1  77/7/1  75/8/1 
f  109/5/1  110/6/1  79/7/1  77/8/1 
f  110/5/1  111/6/1  80/7/1  79/8/1 
f  111/5/1  112/6/1  81/7/1  80/8/1 
f  112/5/1  113/6/1  82/7/1  81/8/1 
f  114/5/1  115/6/1  84/7/1  83/8/1 
f  115/5/1  116/6/1  85/7/1  84/8/1 
f  116/5/1  117/6/1  86/7/1  85/8/1 
f  117/5/1  118/6/1  87/7/1  86/8/1 
f  118/5/1  119/6/1  88/7/1  87/8/1 
f  119/5/1  120/6/1  89/7/1  88/8/1 
f  120/5/1  121/6/1  90/7/1  89/8/1 
f  121/5/1  122/6/1  91/7/1  90/8/1 
f  122/5/1  123/6/1  92/7/1  91/8/1 
f  123/5/1  124/6/1  93/7/1  92/8/1 
f  124/5/1  125/6/1  94/7/1  93/8/1 
f  125/5/1  126/6/1  95/7/1  94/8/1 
f  126/5/1  127/6/1  96/7/1  95/8/1 
f  127/5/1  128/6/1  97/7/1  96/8/1 
f  128/5/1  129/6/1  98/7/1  97/8/1 
f  129/5/1  130/6/1  99/7/1  98/8/1 
f  130/5/1  131/6/1  100/7/1  99/8/1 
f  131/5/1  132/6/1  101/7/1  100/8/1 
f  132/5/1  133/6/1  102/7/1  101/8/1 
f  133/5/1  134/6/1  103/7/1  102/8/1 
f  134/5/1  135/6/1  104/7/1  103/8/1 
f  135/5/1  136/6/1  105/7/1  104/8/1 
f  136/5/1  137/6/1  106/7/1  105/8/1 
f  137/5/1  138/6/1  107/7/1  106/8/1 
f  138/5/1  139/6/1  108/7/1  107/8/1 
f  139/5/1  140/6/1  109/7/1  108/8/1 
f  140/5/1  141/6/1  110/7/1  109/8/1 
f  141/5/1  142/6/1  111/7/1  110/8/1 
f  142/5/1  143/6/1  112/7/1  111/8/1 
f  143/5/1  144/6/1  113/7/1  112/8/1 
f  145/5/1  146/6/1  115/7/1  114/8/1 
f  146/5/1  147/6/1  116/7/1  115/8/1 
f  147/5/1  148/6/1  117/7/1  116/8/1 
f  148/5/1  149/6/1  118/7/1  117/8/1 
f  149/5/1  150/6/1  119/7/1  118/8/1 
f  150/5/1  151/6/1  120/7/1  119/8/1 
f  151/5/1  152/6/1  121/7/1  120/8/1 
f  152/5/1  153/6/1  122/7/1  121/8/1 
f  153/5/1  154/6/1  123/7/1  122/8/1 
f  154/5/1  155/6/1  124/7/1  123/8/1 
f  155/5/1  156/6/1  125/7/1  124/8/1 
f  156/5/1  157/6/1  126/7/1  125/8/1 
f  157/5/1  158/6/1  127/7/1  126/8/1 
f  158/5/1  159/6/1  128/7/1  127/8/1 
f  159/5/1  160/6/1  129/7/1  128/8/1 
f  160/5/1  161/6/1  130/7/1  129/8/1 
f  161/5/1  162/6/1  131/7/1  130/8/1 
f  162/5/1  163/6/1  132/7/1  131/8/1 
f  163/5/1  164/6/1  133/7/1  132/8/1 
f  164/5/1  165/6/1  134/7/1  133/8/1 
f  165/5/1  166/6/1  135/7/1  134/8/1 
f  166/5/1  167/6/1  136/7/1  135/8/1 
f  167/5/1  168/6/1  137/7/1  136/8/1 
f  168/5/1  169/6/1  138/7/1  137/8/1 
f  169/5/1  170/6/1  139/7/1  138/8/1 
f  170/5/1  171/6/1  140/7/1  139/8/1 
f  171/5/1  172/6/1  141/7/1  140/8/1 
f  172/5/1  173/6/1  142/7/1  141/8/1 
f  173/5/1  174/6/1  143/7/1  142/8/1 
f  174/5/1  175/6/1  144/7/1  143/8/1 
